<svg id="Layer_1" data-name="Layer 1" xmlns="http://www.w3.org/2000/svg" viewBox="0 0 216 162.66"><defs><style>.cls-1{fill:#08e4d5;}.cls-2{fill:#ff6f3c;}.cls-3{fill:#fff;}</style></defs><title>Artboard 1</title><path class="cls-1" d="M166.82,25.22l-.21-.37,0-.42-3.94.18V22.19l0-.91-.11-.91-.24-.92-.39-.86-.52-.79-.49.23h-.26l-.16,6.49-1.73-.18-.37-.15,1-7,1.39-4.72.87-4.93-.31-.07.32,0,.38-5-.33,0-.46-.14-2.88,9.12-3.64,8.43-3.23,6.91-2.6,3,0-8.37h-.3l.3,0-.51-6.59-1.37-6.51-.32.06.3-.11L144.29,0,144,.12l-.45.05,1.44,17.18-.48,16.36-1.33,9.39-4,7.23-9.16,4.76-2.74.65a7.2,7.2,0,0,1,.33-2.87c.25-.88-.52-1.09-1-.71l-.08-.06L125,53.91,123.88,56,120,60.75l-5.79,6.06-.49.45a.51.51,0,0,0-.27-.41,2.51,2.51,0,0,0-1.2-.39l-1.46-.37.39.42c-.58.08-1.15.23-1.66.35-1.6.36-3.2-.14-4.82-.3l.44-.47-1.72.43a4.68,4.68,0,0,0-.77.09A1,1,0,0,0,102,67l-.22-.21L96,60.75,92.12,56,91,54l-1.5-1.87-.09.06c-.47-.37-1.26-.17-1,.71a7.14,7.14,0,0,1,.34,2.87l-2.74-.65L76.9,50.33l-4-7.23-1.33-9.38-.48-16.36L72.5.17,72,.12,71.71,0,68.92,8.2l.3.11-.32-.06-1.36,6.46L67,21.36l.29,0H67l0,8.37-2.61-3-3.24-6.91L57.6,11.41,54.72,2.29l-.47.14-.33,0,.38,5,.31,0-.31.07.86,4.89,1.4,4.77,1,7-.37.15-1.72.18L55.31,18H55l-.49-.23-.48.74-.39.86-.26.91-.12,1,0,.91v2.41l-3.94-.18v.42l-.21.37,2.59,1.53.21-.37-.07.41,1.44.26v1.75h.23l-.22.07.25,1.45.54,1.44.79,1.32,1,1.11L60.13,41l3.07,5.43-.09.43,0,.77.12.68.25.69.38.63.49.53.14-.08-.09.13,2.52,1.89,2.82,1.51.13-.23-.1.25,7.19,3.26,10.44,5.59L80,60.15a10.81,10.81,0,0,0-5.56-1.69h-.08l-.51-.11-1,0-1,.14-.31.09-1.11.64-.27.43-.18.47-.09.54v.47l.09.5.18.48h0l.09.22.44,1.13v-.05l.85,2,1.91,3.14.2-.12-.16.17,2,2.3,2.38,2,2.66,1.54.16-.25,0,.29,4.09.88,4.2.21,3.33.74,1.86,3.83-.22.41a.78.78,0,0,0-.14.17c-.67,1.28-1.44,2.57-2.1,3.9l-.93,1.68-.41-.05L89.45,92l-.2,5.86h.1c0,.06,0,.12,0,.18l0,0,0,0a.73.73,0,0,0,0,.33A30.08,30.08,0,0,0,93.07,106L101,122.5l.35-.17s0,0,0,0h0l.37-.19-1.35-2.82-2.59-7.95c-.51-6.33-5.52-10.13-7.39-16,0,0,0-.07-.07-.06L90.52,93c.64.56,1.61-1.77,1.6-2.38-.09-3.58,2.45-7.68,4-10.7.3-.57-.64-.31-1.43.11l.14-.81v-.61l-.11-.64-.22-.61-.33-.56-.42-.49-.5-.4-.51-.26-.47-.4-.63-.35L91,74.63l-.75-.1-.67,0-.62.16L80.9,73.67l-6.76-5.6L71,61.85l.4-2.29,2.6-.14c.42.05.83.13,1.24.22h0l.22.06,2.63,1,3.12,1.55c.56.36,1.1.74,1.63,1.12,2.33,1.7,5.7,2.92,7.22,5.64.45.8,3.6,1.86,3.07.91a6.53,6.53,0,0,0-.78-1.1l0,0-2.28-2.3-2.62-2-2.79-1.5,5.27,1.1,6.4,5.13,1.59,3.46-.25.32L97,74.38l.12.08H97l-.13.45-.08.57,0,.51.12.54.21.5.15.23-.4.79.64.5,3.36-3.16-.43-.7-.86.37-.86.55-.68.63-.21-1.54.62-.82.08.17.1-.39,1.54-2,2.44-2.8.82-.87c1.59,0,3,2.05,4.64,2,.79,0,3.15-2.35,3.82-1.91a1.15,1.15,0,0,0,.88.07l.67.71,2.44,2.8,1.54,2,.09.39.08-.17.62.82L118,76.24l-.63-.6-.85-.57-.94-.4-.43.7,3.36,3.16.64-.5-.4-.79.11-.17.22-.49.13-.53,0-.58-.06-.5-.15-.52-.15,0,.12-.09-.62-1.22-.29-.38,1.59-3.47,6.41-5.13,5.25-1.09-2.71,1.45-2.63,2-2,2-.91.62c-.9.62,1.43,1.1,1.85.82,3.63-2.49,6.2-5.5,9.44-7.45l2.06-1a13.35,13.35,0,0,1,4.47-1,14.53,14.53,0,0,0,2.95-1l.8,0,.4,2.29-3.16,6.22-6.75,5.6L127,74.74l-.54-.15-.76-.06-.67.08-.69.22-.63.35-.52.43-.46.24-.51.39-.43.48-.33.55-.25.61-.12.63v.15c-.67-.45-1.36-.71-1.17-.17,1.14,3.24,3,7.69,2.43,11.22-.11.66.65,3.6,1.46,2.35l.23,2.52s-.05,0-.06.07c-1.2,6.05-5.76,10.42-5.55,16.78l-2,6.64-1.81,4.63.38.16s0,0,0,0l.36.15,7.09-18.16a24.24,24.24,0,0,0,2.89-7.25,2.84,2.84,0,0,0-.26-1L125,92.07l-.43-2.88c.22-3.25-1.3-6.46-2.37-9.5a.42.42,0,0,0-.06-.12l1.58-3.25,3.33-.74,4.14-.2,4.15-.89,0-.29.16.25,2.61-1.5,2.38-2,2-2.35-.17-.17.21.12,1.87-3.08.88-2.11v.06l.53-1.35h0l.15-.41.11-.5v-.55l-.08-.46-.17-.48-.25-.44-1.15-.71-.24-.08-1-.15-1,0-1,.2v.24l-.08-.22-.86.34-2.92.81,0,.16-.06-.16-8.73,2.74,10.45-5.59,7.18-3.26-.1-.25.12.23,2.76-1.48,2.57-1.92-.09-.13.15.08.44-.47.39-.62.27-.68.14-.77,0-.69-.1-.51L155.88,41l4.2-6.79.94-1.05.8-1.31.55-1.44.28-1.52-.22-.07h.22V27.06l1.44-.26-.07-.41.2.37ZM148,45.58l-.53.33.37-1.49.51,1A2.11,2.11,0,0,0,148,45.58Zm13.87-23.34v6.47l-2.44,5L157.14,37l-2,3.55-1.71,2.69-1.1,2.21-1-1.89,2.7-4.92,5-5.8-.19-.17.23.11L160,31.2l.72-1.76.44-1.85,0-.3h0l.07-.79v-.06h0l.07-.75-.15,0h.15V25h0l.11-4.2ZM149.58,40.32l-.29-1.41,2.59-5.25,6.22-6.08,1.8-.17-1.57,4.94-4.93,5.77.31.28-.36-.21-2.48,4.51ZM160.92,25ZM54.67,25l0,.66h.15l-.15,0L54.81,27l0,.53.44,1.85L56,31.14l1,1.64.23-.11-.19.17,5,5.8,2.7,4.92-1,1.89-1.08-2.17-1.73-2.73L58.88,37,56.6,33.73l-2.44-5V22.24l.4-1.45Zm3.22,2.59,6.23,6.08,2.58,5.25-.29,1.41L65.13,42.7l-2.48-4.51-.35.21.31-.28-4.94-5.77-1.57-4.94ZM68,45.58a2.1,2.1,0,0,0-.36-.19l.52-1,.37,1.48ZM51,25.35l2.3.1v.75L52.12,26Zm19,27.5L65,49.59l-.88-3.23,3.09-5.68-.32-.18.35.09.39-1.48-.09,0h0l.09,0,.57-2.14,0,4.17-2.23,5.25,0,0-.17.17-.14.2-.11.22-.07.24.13.06-.13,0-.08.46.81.14.06-.37.41-.59.09-.13.48.42.93.58,1,.41.06-.12,0,.12L73,49.42l.3-.78L72.08,48l-.26-.08a20,20,0,0,0-1.93-1.25v-.08l-.19-1.19-.4-1.17-.56-1-.05-.29,0-.11.22-1.57-.13,0h.13l.28-4.86v0L69,31.46h-.4l-.42-.08-1.22,6L66.4,36l-1.59-2.79-.15.08.13-.12-1.73-2.48-2.2-2.16-2.56-1.7-.21.28,0-.35-2.29-.22-.31-1v-.21l1.85-.19,0-.42.15.39.72-.3-.12-.31,0,0h.33l0-.14a.48.48,0,0,1,.24,0c.46.12.93.56.94.25a38.67,38.67,0,0,0-2.15-8.07c-.08-.11-.2-.31-.35-.56l-2-8.57,1.71,4.31.17-.06-.17.08,3.65,8.45.37-.17-.37.18,3.27,7,.37-.18-.31.28,3.36,3.9.31-.28h.41l0-9.45,1.86-13,1.4-4.12-.59,4.32-.27,8.69.28,0h-.28l.48,16.41h0L71,38.58l1.13,4.76.21,0-.19.09,1,2.67,1.41,2.55,1.76,2.3.29-.2-.16.32,9.31,4.84.08-.15-.05.16,1.12.5,1.27.3.57,0c.18.7,1.17,1,1.35.15a6.82,6.82,0,0,0,.1-2.31l1.25,1.91,1.05,1.78,1.34,1.66,1.56,1.43,5.8,6.07.29-.29-.27.31.76.7,0,.21-2.37,2.72-.58.53L98.88,71l-.21-.62-.33-.57-.42-.49-.51-.4-.51-.25-3.64-3.37L90.6,63.48v0h-.09l-1.4-1-.18.26.14-.28L77.27,56.11l-.19.37.17-.39ZM91.14,85.71c-.09.21-.18.42-.27.64l-.15,0Zm2.94-5.31.08-.17,0,.09ZM84.51,63.12l0-.07h0Zm46.95-.06,0,.06,0-.06Zm7.27-7-11.81,6.33.14.28-.18-.26-1.4,1h-.08v0l-2.63,1.81-3.67,3.4-.45.22-.52.39-.43.48-.34.56-.22.62-.09.65-.58-.54-2.36-2.71,0-.23.76-.7-.27-.31.29.29,5.8-6.07L122.13,60l1.35-1.66,1.09-1.83,1.26-1.91a7,7,0,0,0,.09,2.31c.18.84,1.18.56,1.36-.14l.5,0L129,56.4l1.2-.52-.05-.16.08.15L139.58,51l-.16-.32.29.2,1.72-2.25,1.42-2.54,1-2.73-.19-.09.21,0L145,38.66l.24-4.89h0l.48-16.41h-.29l.29,0-.27-8.64-.6-4.37,1.4,4.13,1.87,13,0,9.45h.41l.31.28,3.36-3.9-.31-.28.37.18,3.26-7-.36-.18.37.17,3.65-8.45-.16-.08.17.06,1.69-4.27-2,8.54c-.15.24-.27.45-.35.56a38.4,38.4,0,0,0-2.15,8.07c0,.31.48-.13.94-.25a.51.51,0,0,1,.25,0v.14h.32l.05,0-.12.31.71.3.16-.39,0,.42,1.84.19v.21l-.31,1-2.3.22,0,.35-.22-.28-2.5,1.65L153,30.62l-1.78,2.54.13.12-.15-.08-1.56,2.75-.63,1.5-1.23-6-.41.08H147l-.19,4.89.29,4.89h.14l-.14,0,.21,1.5.06.17,0,.29-.53.95-.41,1.17-.22,1.26v.08a20.45,20.45,0,0,0-1.93,1.24L144,48l-1.3.64.3.78,3.94-1.24,0-.12.05.12.94-.37.94-.56.53-.46.09.12.41.6.06.36.81-.14-.08-.46-.12,0,.12-.06,0-.17-.1-.23-.14-.2-.16-.18-.1-.07-2.22-5.25,0-4.18.57,2.15.08,0h0l-.08,0,.39,1.48.36-.09-.32.18,3.09,5.68L151,49.59l-5.12,3.26-7.17,3.25.16.39ZM163.88,26l-1.22.22v-.75l2.3-.1Z"/><path class="cls-1" d="M131.63,124.49l-1.32-8.16-2.15-8-1,.24,3.46,16.13.19,1.2L128,138.93l-.65,1-5.16,4.42-4.74,5.07.28.29-.35-.2-3.65,6.42c-.94.35-2.28,1.18-2.44,1.71a8.47,8.47,0,0,1-1,2.37l-1.15.64h0a6.15,6.15,0,0,1-2.59-1.27c-1.43-1-4.56-5.76-6.21-6.48l-1.92-3.39-.35.2.28-.29-4.7-5-5.2-4.46-.65-1-2.88-13.05.2-1.2,3.45-16.13-1-.24-2.14,8-1.33,8.21h0l-.55,3.34.1,3.38.73,3.35,1.34,3.14,1.92,2.82.35-.26-.29.34L97.57,150l2.45,5,3.07,4.75.22-.15,0,0-.13.22.76.58a5.83,5.83,0,0,0,3.07,2.15c1.77.38,3.62-.79,5.07-2.4l.44-.33-.06-.1.07-.09.1.07,3-4.7,2.49-5,9.84-9.43-.29-.34.36.26,1.86-2.74,1.37-3.13.75-3.34.11-3.48-.54-3.34Z"/><path class="cls-1" d="M111.19,117.54c1.08,1.1,3-.2,3-2.1,0-3.83-2.75-6.94-6.14-6.94s-6.13,3.11-6.13,6.94c0,1.9,1.9,3.2,3,2.1a13.63,13.63,0,0,0-.87-2.28c-1-3.13.94-.88,1.25-1.15a3.71,3.71,0,0,1,5.52,0c.3.27,2.22-2,1.24,1.15A13.24,13.24,0,0,0,111.19,117.54Z"/><path class="cls-2" d="M67.48,96.55c0-3-.17-6-2.81-6-1.61,0-2.64.85-2.64,3.14,0,2.56,1.23,3.55,2.74,4.8A46.94,46.94,0,0,1,70.6,104a10.35,10.35,0,0,1,2.16,7c0,6.38-3.22,9.7-7.91,9.7-5.75,0-7.81-4.22-7.81-10.24v-2.47h4.79v2c-.1,3.28.65,5.66,3,5.66,2,0,3-1.39,3-4a5.58,5.58,0,0,0-1.92-4.45c-2.5-2.56-5.62-4.4-7.57-7.77a11.49,11.49,0,0,1-1.23-5.16c0-5.75,2.47-8.89,7.53-8.89,7.64,0,7.43,7.72,7.47,11Z"/><path class="cls-2" d="M76.49,100.45c.21-8.58.72-15,8.39-15s8.19,6.38,8.39,15v4.8c0,9-.51,15.54-8.39,15.54s-8.39-6.56-8.39-15.54Zm4.93,7.95c0,2.78.17,7.32,3.46,7.32s3.46-4.62,3.46-7.86V99.24c0-2.69.1-8.67-3.46-8.67-3.77,0-3.46,5.88-3.46,8.49Z"/><path class="cls-2" d="M112.86,108c0,.63-.07,1.3-.1,1.93-.24,6.15-1.81,10.87-7.16,10.87-7.88,0-8.39-6.56-8.39-15.54v-4.8c.21-8.58.72-15,8.39-15,4.28.09,6.68,3,7,8.71a21.36,21.36,0,0,1,.1,2.56H108c-.21-2.16,0-6.2-2.4-6.2-3.77,0-3.46,5.88-3.46,8.49v9.34c0,2.78.17,7.32,3.46,7.32,2.64,0,2.33-5.57,2.43-7.72Z"/><path class="cls-2" d="M116.73,120V86.31h4.79V120Z"/><path class="cls-2" d="M124.2,120l6.13-33.68h6.47L142.63,120h-5.14l-1.27-8.53h-5.62L129.34,120Zm7.16-13.47h4.11L134.17,97c-.24-1.57-.34-3.1-.48-4.67,0-.76-.1-1.53-.17-2.25h-.07c-.07.72-.14,1.48-.17,2.25-.14,1.57-.24,3.1-.48,4.67Z"/><path class="cls-2" d="M145.27,120V86.31h4.79V115H159V120Z"/><path class="cls-2" d="M3.51,43h7c5.13,0,7.4,2.75,7.4,9.34,0,6.32-2.57,9.85-6.35,9.85H8.26V75.29H3.51Zm6.61,14.56c2.35,0,2.92-1.37,2.92-5.13s-.7-4.76-3.09-4.76H8.26v9.89Z"/><path class="cls-2" d="M30.22,43V68c0,2,1.09,3.07,2.52,3.07S35.14,70,35.14,68V43H40V67.14C40,72.86,37.31,76,32.7,76s-7.31-3.07-7.31-9V43Z"/><path class="cls-2" d="M49.1,43h4.26l6,19.33c.09.27.43,1.42.91,3.44a32.21,32.21,0,0,1-.52-4.35V43h4.44V75.29H59.76L54,57.43c-.26-.82-.65-2-1-3.53a39.16,39.16,0,0,1,.52,4.49v16.9H49.1Z"/><path class="cls-2" d="M73,50.42c0-5,2.74-8.15,7.44-8.15,4.31,0,7.14,3.07,7.14,8.29v3.11H82.72V50.1c0-2.24-.83-3.34-2.44-3.34s-2.44,1.1-2.44,3.34v18c0,2.24.83,3.39,2.44,3.39s2.44-1.14,2.44-3.39v-4.4h4.87v3.39c0,5.73-2.7,8.84-7.31,8.84C75.5,76,73,72.91,73,67Z"/><polygon class="cls-2" points="100.9 42.95 100.9 56.14 105.64 56.14 105.64 42.95 110.38 42.95 110.38 75.29 105.64 75.29 105.64 60.82 100.9 60.82 100.9 75.29 96.2 75.29 96.2 42.95 100.9 42.95"/><path class="cls-2" d="M127.38,43h6.27c5.09,0,7.92,3.11,7.92,8.43a8.72,8.72,0,0,1-3.31,7.37c2.52,1.51,3.7,4,3.7,7.88,0,6-2.44,8.66-7.57,8.66h-7ZM134,56.42c1.7,0,2.74-1.56,2.74-4.44,0-3.16-1-4.35-3.13-4.35h-1.52v8.79Zm.13,14.2c2,0,3-1.47,3-4.63,0-3.53-1-4.9-3.48-4.9h-1.52v9.53Z"/><path class="cls-2" d="M156.6,42.27c4.31,0,7.14,3.07,7.14,8.29V67.14c0,5.73-2.7,8.84-7.31,8.84s-7.27-3.07-7.27-9V50.42c0-5,2.74-8.15,7.44-8.15m2.26,7.83c0-2.24-.83-3.34-2.44-3.34S154,47.86,154,50.1v18c0,2.24.83,3.39,2.44,3.39s2.44-1.15,2.44-3.39Z"/><path class="cls-2" d="M174.29,43l2.09,19.14a46.13,46.13,0,0,1,.31,5.08v.64c.17-3.34.26-5.45.39-6.37L179.43,43h4L186,62.1a43.81,43.81,0,0,1,.3,5.73c.13-2.7.22-4.81.39-6.37l2-18.5h4.48l-4.79,32.33h-4l-2.61-18.78a44.34,44.34,0,0,1-.31-5.73c-.17,3.53-.3,5.63-.39,6.37l-2.52,18.14h-4L169.77,43Z"/><polygon class="cls-2" points="200.43 42.95 205.13 42.95 205.13 70.62 212.49 70.62 212.49 75.29 200.43 75.29 200.43 42.95"/><rect class="cls-3" y="81.4" width="216" height="0.81"/><rect class="cls-3" y="123.98" width="216" height="0.81"/><rect class="cls-3" x="48.56" y="89.11" width="0.15" height="28.07"/><rect class="cls-3" x="169.34" y="89.11" width="0.15" height="28.07"/><polygon class="cls-3" points="12.73 101.17 12.73 101.77 10.66 101.77 10.66 103.14 12.31 103.14 12.31 103.73 10.66 103.73 10.66 105.72 9.78 105.72 9.78 101.17 12.73 101.17"/><path class="cls-3" d="M20.52,103.45c0,.93-.25,2.35-1.89,2.35s-1.92-1.29-1.92-2.35.32-2.36,1.91-2.36,1.9,1.29,1.9,2.36m-2.68-1.27a3.13,3.13,0,0,0-.22,1.27,3.27,3.27,0,0,0,.22,1.27.87.87,0,0,0,1.54,0,3.23,3.23,0,0,0,.21-1.27,3.16,3.16,0,0,0-.21-1.27.87.87,0,0,0-1.54,0"/><path class="cls-3" d="M28.68,103.45c0,.93-.25,2.35-1.89,2.35s-1.92-1.29-1.92-2.35.32-2.36,1.91-2.36,1.9,1.29,1.9,2.36M26,102.18a3.12,3.12,0,0,0-.21,1.27,3.27,3.27,0,0,0,.21,1.27.87.87,0,0,0,1.54,0,3.24,3.24,0,0,0,.21-1.27,3.17,3.17,0,0,0-.21-1.27.87.87,0,0,0-1.54,0"/><path class="cls-3" d="M34.41,101.17a2.61,2.61,0,0,1,1.81.56,2.55,2.55,0,0,1-.38,3.69,2.72,2.72,0,0,1-1.36.29H33.21v-4.54Zm-.32.6v3.34h.37a1.35,1.35,0,0,0,.92-.27,1.78,1.78,0,0,0,.53-1.4c0-.88-.32-1.68-1.45-1.68Z"/><path class="cls-3" d="M182.75,101.17a2.61,2.61,0,0,1,1.81.56,2.55,2.55,0,0,1-.38,3.69,2.72,2.72,0,0,1-1.36.29h-1.26v-4.54Zm-.32.6v3.34h.37a1.36,1.36,0,0,0,.92-.27,1.77,1.77,0,0,0,.52-1.4c0-.88-.32-1.68-1.45-1.68Z"/><path class="cls-3" d="M191.27,101.17a2.14,2.14,0,0,1,1.14.23,1.21,1.21,0,0,1,.56,1.06,1.23,1.23,0,0,1-.82,1.19l1,2.06h-.95l-.84-1.9h-.83v1.9h-.88v-4.54Zm-.72.58v1.48h.68c.63,0,.88-.33.88-.78,0-.71-.68-.71-.87-.71Z"/><rect class="cls-3" x="197.54" y="101.17" width="0.88" height="4.54"/><polygon class="cls-3" points="204.14 101.17 205.89 104.45 205.89 101.17 206.62 101.17 206.62 105.72 205.8 105.72 203.84 102.08 203.84 105.72 203.1 105.72 203.1 101.17 204.14 101.17"/><polygon class="cls-3" points="212.19 101.17 212.19 103.34 213.79 101.17 214.72 101.17 213.35 102.84 214.95 105.72 214.01 105.72 212.82 103.47 212.19 104.22 212.19 105.72 211.31 105.72 211.31 101.17 212.19 101.17"/></svg>
