<?xml version="1.0" encoding="utf-8"?>
<!-- Generator: Adobe Illustrator 19.2.1, SVG Export Plug-In . SVG Version: 6.00 Build 0)  -->
<svg version="1.1" id="Layer_1" xmlns="http://www.w3.org/2000/svg" xmlns:xlink="http://www.w3.org/1999/xlink" x="0px" y="0px"
	 viewBox="0 0 89.8 62.8" style="enable-background:new 0 0 89.8 62.8;" xml:space="preserve">
<g id="Page-1">
	<g id="bird-logo-grey">
		<g id="Group-3" transform="translate(0.000000, 0.083524)">
			<g id="Clip-2">
			</g>
			<path id="Fill-1" d="M89,54.1c-0.6,1-1.2,2.1-1.6,3.2c-0.5,1.1-0.9,2.3-1.3,3.5c-0.9-1-1.8-2.1-2.6-3.2c-0.2-0.3-0.4-1-0.2-1.3
				c0.5-1.3,1.1-2.7,2.7-3.1c0.8-0.2,1.6-0.4,2.4-0.4C89.5,52.8,89.5,53,89,54.1 M81.7,55c-0.9,0.6-1.7,1.2-2.6,1.7
				c-1,0.7-1.5,0.7-2.4-0.1c-0.3-0.2-0.5-0.4-0.7-0.7c-0.1,0.1-0.2,0.1-0.2,0.2c0.2,0.3,0.3,0.7,0.5,1c0.2,0.4,0.4,0.7,0.7,1.2
				c-0.8,0.4-1.5,0.8-2.2,1.1c-0.2,0.1-0.7-0.1-0.8-0.4c-1-1.4-0.7-3-0.3-4.5c0.4-1.6,1.2-2.7,2.8-3.2c0.7-0.2,1.4-0.8,2.1-1.2
				c1.7-1.2,3.7-1.8,5.7-2.2c1.3-0.3,2.3,0.1,3.1,1.1c0.7,0.9,1.3,1.7,1.6,3C85.9,51.8,83.9,53.6,81.7,55 M69.6,52.7
				c-0.3-0.5,0.2-1.5,0.5-2.1c0.3-0.7,1-1.2,1.2-1.9c0.4-1,0.1-1.5-1-2c0.8-1.2,1.5-2.4,2.2-3.6c0.1-0.1,0.1-0.2,0.2-0.3
				c1.6-0.5,3.2-1.3,4.9-1c1.1,0.2,1.4,0.6,0.9,1.7c-1.1,2.2-2.1,4.4-3.4,6.5c-1.3,2.2-2.4,4.5-2.6,7.1
				C71.6,55.6,70.5,54.2,69.6,52.7 M69.4,46.4c-0.5-0.1-1.1-0.3-1.7-0.6c1.4-0.9,2.7-1.7,4-2.5c0.1,0,0.1,0.1,0.2,0.1
				c-0.6,0.9-1.1,1.8-1.8,2.7C69.9,46.3,69.6,46.4,69.4,46.4 M59.7,50.3c-1,0.7-1.9,1.5-2.9,2.1c-1.9,1.2-4,2.3-5.9,3.4
				c-1,0.6-2,1.3-3,1.9c-0.7,0.4-1.3,0.8-2.1,1c-1.2,0.4-2.3,0.3-3.4-0.5c-2-1.4-4.1-2.6-6.2-4c3.7-1.4,7.1-3.6,10.5-5.6
				c1.1-0.6,2.2-1.2,3.3-1.8c0.5-0.3,1.1-0.6,1.6-0.9c4.6-3,9.1-6,13.7-9c1-0.7,2.2-1.2,3.3-1.8c0.4,0.5,0.6,0.9,1,1.4
				c0.1-0.3,0.2-0.4,0.2-0.5c-0.5-1,0.1-1.5,1-1.7c0.8-0.2,1.6-0.6,2.5-0.7c0.9-0.1,1.4,0.4,1.8,1.2c0.5,1,1,1.8,1.5,2.8
				c0.7,1.2,1.3,2.4,2.1,3.7c-2.9-0.3-5.3,0.5-7.5,1.8C67.2,45.3,63.3,47.7,59.7,50.3 M34.2,50.8c0.1-0.5,0.3-1,0.6-1.5
				c0.2-0.3,0.5-0.5,0.8-0.5c1.4-0.1,2.7,0,4.1-0.1c1,0,2.1-0.2,3.1-0.2c-0.4,1.5-1.1,2.7-2.6,3.3c-1.2,0.5-2.3,1.3-3.5,1.7
				C34.4,54.3,33.9,52.9,34.2,50.8 M30.4,47.1c0.2-2.8,0.5-5.5,0.7-8.3c0.1-1.2,0.2-2.4,0.3-3.6c0-0.6,0.2-0.8,0.9-0.8
				c1.7,0.1,3.4,0.1,5.1,0.2c0.7,0,1.3-0.1,2.1-0.2c0.1,1.2,0.2,2.2,0.3,3.3c0,0.5-0.1,0.7-0.6,0.8c-1.1,0.1-2.1,0.3-3.2,0.5
				c-0.2,0-0.4,0.3-0.6,0.5c0.2,0.1,0.5,0.4,0.7,0.4c0.7,0,1.3-0.2,2.1-0.3c0,1-0.1,1.9-0.2,2.8c0,0.1-0.4,0.3-0.6,0.4
				c-0.6,0.1-1.1,0.1-1.7,0.2c-0.3,0.1-0.5,0.3-0.7,0.4c0.3,0.1,0.5,0.3,0.8,0.3c1.3-0.1,2.6-0.3,3.9-0.4c0.2,0,0.4-0.1,0.8-0.1v4.1
				C37.1,47.8,33.8,47.4,30.4,47.1 M29.8,45.2c-0.1,0.6,0,1.4-0.3,1.7s-1.1,0.1-1.7,0.2c-0.1,0-0.2,0-0.3,0
				c-1.7,0.2-1.7,0.1-1.4-1.5c0.2-0.9,0.2-1.8,0.3-2.7c0.1-0.5-0.1-0.7-0.7-0.8C24,42,24,42,24,43.8c0,0.9-0.1,1.9-0.3,2.8
				c0,0.2-0.3,0.6-0.5,0.6c-1.1,0.3-2.2,0.5-3.4,0.7c0.1-2.4,0.2-4.9,0.3-7.3c0.1-1.8,0.1-3.6,0.3-5.3c0-0.3,0.3-0.7,0.5-0.7
				c2.3-0.7,4.6-0.9,6.9-0.3c2.6,0.7,3.4,3.3,1.7,5.4c-0.2,0.3-0.4,0.5-0.7,0.9C30,42,30.1,43.6,29.8,45.2 M18.9,40
				c-1.5,0.7-3,1.4-4.5,2.1c-0.5,0.2-0.6,0.4-0.2,0.9c1.1-0.5,2.2-1,3.4-1.5c0,1,0,1.9,0,2.7c0,0.1-0.3,0.3-0.5,0.4
				c-3.3,1.5-2.8,1-2.2,4.3c0,0.2,0.1,0.5,0.2,0.8c-1.2,0.2-2.4,0.5-3.6,0.7c-0.8,0.2-1.4-0.3-1.7-1c-0.4-1.3-0.8-2.7-1.1-4.1
				c-0.2-1.2-0.3-2.5-0.4-3.7c0-0.2,0.1-0.6,0.3-0.7c3.7-2,7.4-3.9,11.2-5.9c0.1,0.1,0.2,0.2,0.3,0.3c-0.1,1.4-0.2,2.8-0.4,4.2
				C19.5,39.6,19.2,39.9,18.9,40 M35.5,21.3c-0.1,0.1-0.2,0.1-0.2,0.2c0.5,0.9,1.1,1.8,1.7,2.9c-1.5,0.2-2.9,0.5-4.2,0.7
				c-0.9,0.1-1.5-0.4-1.9-1.2c-0.5-1.2-0.8-2.5-0.5-3.9c0.4,0,0.8,0.1,1.1,0c1.1-0.1,2.2-0.1,3.3-0.2c1.7-0.2,3.3-0.4,5-0.6
				c0.6-0.1,0.9,0.2,0.9,0.8c0,0.4,0.2,0.8,0.2,1.1c0.1,0,0.2,0,0.3,0c0-0.2,0.1-0.3,0.1-0.5c0.3-0.5,0.4-1.3,0.8-1.4
				c0.8-0.3,1.7-0.2,2.2,0.6c1.3,1.9,2.6,3.7,4,5.7c-2.9-1.3-6-0.7-9-1c-0.7-0.1-1.1-0.3-1.6-0.8C37.1,22.8,36.3,22.1,35.5,21.3
				 M48.9,26.3c-1.8,2.8-3.8,3.1-6,0.9c0.5-2.1,0.7-2.3,2.8-1.9C46.7,25.5,47.8,25.9,48.9,26.3 M39.9,25.2h3
				c-0.2,0.6-0.4,1.1-0.5,1.6C41.5,26.2,40.7,25.7,39.9,25.2 M46.8,48c-1.3,0.8-2.6,1.6-4,2.5c0.1-0.4,0.2-0.6,0.2-0.7
				c0.2-1.2,0.9-1.7,2.1-1.7C45.6,48.1,46.2,47.9,46.8,48 M43.3,46.4c-0.6,0.2-1.2,0.3-1.8,0.5c-0.3-2.8-0.6-5.6-0.9-8.3
				c-0.2-1.3-0.4-2.6-0.5-3.9c0-0.2,0.2-0.6,0.4-0.7c1.8-1,3.7-1.9,5.5-2.9c0.2-0.1,0.4-0.2,0.7-0.3c0.5,1.2,1.1,2.3,1.7,3.7
				c-1.2,0.6-2.4,1.3-3.6,1.9c-0.5,0.3-0.7,0.5-0.3,1.2c0.9-0.4,1.8-0.9,2.9-1.4c0.3,0.9,0.6,1.8,0.9,2.7c0,0.1-0.2,0.4-0.3,0.5
				c-0.7,0.4-1.4,0.7-2.1,1c-0.7,0.3-0.8,0.7-0.4,1.5c1.9-0.9,3.8-1.7,5.7-2.6c0.5,1.1,1,2.1,1.4,3.2c0.1,0.2-0.2,0.6-0.4,0.7
				C49.2,44.6,46.3,45.6,43.3,46.4 M51.9,26.1c2.4-1,4.1-0.4,5.3,1.9c0.4,0.8,0.8,1.3,1.9,1.3c1.5,0,2.7,0.8,3.5,2.1s0.8,2.8-0.4,4
				c-1,1.1-2.2,2.1-3.4,3c-1.6,1.3-3.3,2.5-5,3.8c-0.7-1.2-1.3-2.3-1.9-3.5c-1.5-2.7-3-5.3-4.5-8c-0.1-0.2-0.2-0.7,0-0.8
				C48.7,28.4,50,26.9,51.9,26.1 M56.3,19.2c3.5,3.4,7,6.7,10.5,10.1c-0.1,0.1-0.1,0.2-0.2,0.3c-0.7,0.9-1.4,1.8-2.1,2.7
				c-3.5-3.2-7-6.4-10.6-9.7C54.7,21.5,55.4,20.4,56.3,19.2 M61.7,13.9c1.2-0.8,3.6-0.6,4.7,0.3c1,0.9,1.1,2.1,0.8,3.4
				c1.4-0.2,2.5,0.4,3.5,1.2c0.9,0.7,1.8,1.5,2.9,2.3c-0.8,1-1.7,2.1-2.6,3.3c-1-0.9-2-1.7-2.9-2.5c-1.1-1-1.3-0.9-2.1,0.5
				c1.2,1.1,2.5,2.1,3.8,3.3c-0.7,1-1.4,2-2.2,3.1C64,25.3,60.5,22,57,18.6C58.3,16.6,59.8,15.1,61.7,13.9 M67.2,9.3
				c2.7-1.2,5.4-1.6,8.3-0.8c3.4,0.9,4.8,3.4,3.4,6.6c-0.5,1.2-1.5,2.3-2.4,3.4c-0.6,0.7-1.4,1.3-2.2,2c-3.5-3-7-5.9-10.7-9
				C64.9,10.7,66,9.9,67.2,9.3 M30.2,18.3c-0.2,1.4-0.4,2.8-0.6,4.1c-0.3-0.4-0.8-1-1.2-1.6c-0.5-0.7-1-1.4-1.5-2.1
				c-0.8-0.9-0.9-1.8-0.5-2.8c0.4-0.9,0.9-1.7,1.4-2.6c0.2,0.3,0.4,0.4,0.4,0.5c0.6,1.3,1.3,2.7,1.9,4.1
				C30.2,17.9,30.2,18.1,30.2,18.3 M89.7,52.8c-0.3-0.9-0.7-1.8-1.1-2.6c-1.3-2.4-2.9-3.1-5.3-2.5c-2.1,0.5-4,1.3-5.7,2.6
				c-0.7,0.6-1.7,0.9-2.6,1.4c1.4-2.6,2.7-5,3.9-7.4c0.3-0.6,0.6-1.5,0.4-2c-0.8-1.9-1.9-3.7-2.9-5.6c-0.2-0.5-0.6-0.9-0.7-1.4
				c-0.4-1.8-1.6-2.5-3.7-1.8c-1.5,0.5-3,1.1-4.4,1.8c-1.3,0.6-2.5,1.3-3.8,2l-0.1-0.1c0.8-0.8,1.5-1.7,2.3-2.5
				c1-0.9,1.6-1.9,2.1-3.1c0.3-0.9,0.9-1.7,1.5-2.3c1.3-1.2,2.4-2.5,3.2-4c1-2,2.4-3.5,4.4-4.7c0.8-0.5,1.4-1.4,2-2.2
				c0.5-0.6,1-1.3,1.5-1.9c0.7-0.8,1.5-1.5,2.1-2.3c1.3-1.8,2.7-3.3,5-3.8c0.2,0,0.5-0.1,0.6-0.3c0.2-0.2,0.4-0.5,0.4-0.8
				c0-0.2-0.4-0.4-0.6-0.5c-0.6-0.1-1.2-0.1-1.9,0C85.1,8.9,84,9,82.8,9.1c0.1-0.3,0.2-0.3,0.4-0.4C85,8,86.7,7.2,88.4,6.5
				C88.7,6.4,89,5.9,89,5.6C88.9,5.3,88.5,5,88.2,5c-0.5,0-1,0.2-1.5,0.3c-0.5,0.1-1,0.2-1.7,0.3c1-1.2,2.6-1.4,2.9-2.8
				c-0.1-0.1-0.1-0.2-0.2-0.3c-3.1,0.9-6.2,1.8-9.2,2.8c1-0.8,2.1-1.4,3.1-2.1c0.7-0.5,1.3-1.2,1.9-1.9c0.2-0.2,0.1-0.6,0.2-1
				c-0.3,0-0.7-0.1-1,0C82,0.4,81.5,0.7,81,1c-1.9,1.2-3.8,2.4-5.7,3.6c-0.5,0.3-1,0.5-1.6,0.8c0.9-1.5,2.8-2.3,2.6-4.5
				c-0.6,0.2-1.1,0.4-1.5,0.8c-2.5,2.8-5.6,5-8.9,6.8c-2.7,1.4-5.2,3.2-7.1,5.6c-2.3,2.7-4.4,5.6-6.6,8.4c-0.9,1.1-1.8,2.3-2.8,3.4
				c-0.2-0.3-0.4-0.5-0.6-0.7c-1.4-1.9-2.7-3.8-4.2-5.7c-0.9-1.2-2.6-1.3-3.6-0.4c-0.5-0.5-2.8-0.5-5.2,0c-1.8,0.4-3.5,0.6-5.1,0.4
				c-0.2-0.9-0.2-1.7-0.5-2.5c-0.4-1-0.9-1.9-1.3-2.9c-0.3-0.5-0.7-1-1.2-1.8c-0.8,1.5-1.9,2.6-2,4.1c-0.1,0.6,0,1.4,0.4,1.9
				c1.5,2.2,3.2,4.3,4.8,6.4c0.2,0.3,0.7,0.5,1.1,0.6c1.4,0.3,2.8,0.2,4.3-0.6c0.1,0.9,0.1,1.6,0.2,2.2c0,0.5,0,1,0.1,1.4
				c0.2,1.3,0.6,2.6,0.8,3.8c0.2,1.1,0,1.3-1.1,1.3c-2.2-0.1-4.3-0.3-6.5-0.4c-1.8-0.1-3.6-0.5-5.3-0.3c-2.2,0.3-4.4,1.1-6.5,1.9
				c-2.5,0.9-4.8,2.1-7.3,3c-1.8,0.8-3.7,1-5.5,1.4c-0.3,0.1-0.6,0.5-0.8,0.7c0.3,0.2,0.6,0.5,0.9,0.5c0.6,0,1.2-0.1,2-0.1
				c-2.1,1.4-3.9,3.1-6.3,3.7c-0.2,0-0.4,0.1-0.6,0.3C0.2,44.3,0,44.5,0,44.7s0.4,0.4,0.6,0.4c0.6,0.1,1.2,0.2,1.8,0
				c1.4-0.4,2.8-1,4.3-1.6c-1.8,2.1-4.7,3-6.1,5.7c1.5,0.9,2.5-0.5,3.8-0.6c-0.6,0.7-1.1,1.3-1.5,1.9c-0.2,0.2-0.2,0.8,0,1
				s0.7,0.3,1,0.2c0.6-0.3,1.2-0.7,1.8-1.1c0.7-0.5,1.3-1,2-1.5c0,0.3,0,0.4-0.1,0.5c-0.5,0.9-1,1.9-1.4,2.9c-0.1,0.2,0,0.7,0.1,0.8
				c0.2,0.1,0.6,0.1,0.9,0c0.2,0,0.4-0.2,0.5-0.3c1.4-1.3,3.3-1.6,5.1-1.7c2.5-0.1,4.9-0.7,7.1-1.7c1.6-0.7,3.3-0.9,5.2-0.6
				c1.2,0.2,2.5,0.1,3.7-0.1c1.8-0.3,3.7-0.4,5.5,0.1c-0.2,0.5-0.4,0.9-0.5,1.4c-0.5,2-0.1,3.5,1.5,4.2c2.1,1,4.1,2.2,6,3.6
				c1.6,1.2,3.1,1.8,5,1c0,0,0.1,0,0.2,0.1c0.1,1.3,1.1,1.8,2.1,2.2c1.7,0.6,3.3,0.4,5-0.1c0.3-0.1,0.8-0.2,1-0.1
				c1.2,0.6,2.2,0.4,3.3-0.1c1.4-0.6,2.8-1.4,4.2-1.9c2.2-0.7,3.6-2.2,4.7-4.1c0.5-0.9,1.3-1.6,2-2.4c0.3,0.3,0.4,0.4,0.5,0.6
				c1.4,2.1,2.7,4.1,4.1,6.1c0.2,0.3,0.9,0.7,1.2,0.6c1-0.4,2-0.9,3-1.4c-0.2-0.5-0.3-0.7-0.5-1.2c1,0.7,1.6,0.2,2.3-0.3
				c1.2-0.9,2.5-1.7,4-2.7c-0.2,0.5-0.4,0.8-0.6,1.1c-0.4,0.8-0.4,1.6,0.2,2.3c1.2,1.5,2.3,2.9,3.5,4.4c0.1,0.2,0.4,0.3,0.6,0.4
				c0.1,0,0.1-0.1,0.2-0.1c-1-1.6-0.4-3.2,0.3-4.7c0.6-1.3,1.3-2.5,1.9-3.7C89.7,53.8,89.9,53.2,89.7,52.8"/>
		</g>
		<path id="Fill-4" d="M69.8,38.6c0.1-0.1,0.2-0.1,0.2-0.2c1.3,0.6,2.6,1.2,4.2,1.9c-0.6-1.1-1-2-1.4-3c-0.2-0.5-0.3-1-0.5-1.6
			c-0.3,0.2-0.7,0.4-1.3,0.7c1.5,0.2,1.4,1.3,1.9,2.1c-1-0.3-1.9-0.6-2.8-1c-0.8-0.4-1.3,0.2-1.8,0.7c1.1-0.2,1.3,0.6,1.6,1.3
			c0.3,0.7,0.5,1.3,0.8,2.1c0.3-0.1,0.7-0.3,0.9-0.4C71,40.3,70.4,39.5,69.8,38.6"/>
		<path id="Fill-6" d="M67.4,42.7c-0.3,0-0.7-0.6-1-1c0.1-0.1,0.1-0.2,0.2-0.3c0.4,0,0.7,0,1.2,0.1c-0.3-0.5-0.6-1-0.9-1.5
			c-0.2,0.5-0.4,0.9-0.6,1.5c-0.4-0.7-0.6-1-0.9-1.5c0.6-0.2,1.2-0.4,1.9-0.7c0-0.1-0.2-0.3-0.3-0.7c-1,0.6-2,1.2-2.9,1.8
			c0,0.1,0.1,0.2,0.1,0.2c1.1-0.2,1,0.9,1.4,1.4c0.5,0.6,1,1.2,0.6,2.1c1.1-0.6,2.1-1.2,3.2-1.8c-0.2-0.4-0.4-0.6-0.6-0.9
			C68.9,42.4,68.1,42.7,67.4,42.7"/>
		<path id="Fill-8" d="M60,46.4c0.3,0.9-0.2,1.3-0.8,1.6c-0.2,0.1-0.6-0.1-0.8-0.3s-0.2-0.5-0.3-0.8c0.3,0,0.6,0,0.9-0.1
			c0.1,0,0.1-0.1,0.3-0.1c-0.3-0.4-0.6-0.9-0.9-1.3c-0.2,0.5-0.3,0.9-0.5,1.5c-0.3-0.4-0.4-0.6-0.5-0.8s-0.2-0.4-0.5-0.7
			c0.6-0.3,1.2-0.5,1.8-0.8c-0.1-0.1-0.2-0.3-0.4-0.6c-1,0.7-1.9,1.3-2.8,1.9c1.1,0.3,2.2,2.1,2.2,3.7c1.1-0.8,2.1-1.5,3.2-2.2
			c-0.3-0.4-0.5-0.6-0.6-0.8C60.2,46.4,60.1,46.4,60,46.4"/>
		<path id="Fill-10" d="M62,41.5c1.3,0.7,1,1.9,1.2,2.9c-0.7-0.8-2.1-0.8-2.1-2.3c-0.6,0.4-1.1,0.8-1.5,1.2c1.5,0.9,2.8,1.7,4.2,2.6
			c0.1-0.1,0.1-0.1,0.2-0.2c-0.3-1.6-0.6-3.2-0.9-4.9C62.7,41,62.4,41.2,62,41.5"/>
		<path id="Fill-12" d="M53.3,47.6c0.7-0.1,1.2-0.2,1.8-0.2C55,46.7,54.6,46.6,54,47c-0.8,0.5-1.6,1-2.4,1.5
			c-0.7,0.5-0.7,0.7-0.1,1.1c0.4-0.4,0.7-0.7,0.9-1c0.3,0.2,0.6,0.5,0.8,0.8s0.4,0.7,0.6,1c0.4,0.5,0.8,1,0.4,1.8
			c0.6-0.4,1.2-0.8,1.9-1.3C54.4,50.3,54.3,48.8,53.3,47.6"/>
		<path id="Fill-14" d="M50.2,51.4c-0.3,0-0.7,0-0.9-0.1s-0.3-0.5-0.5-0.8c0.3-0.1,0.6-0.3,0.8-0.3c0.3,0,0.5,0.2,0.8,0.3
			c0-0.1,0.1-0.1,0.1-0.2c-0.1-0.2-0.3-0.5-0.4-0.8c-0.3,0.1-0.6,0.2-0.8,0.2c-0.7,0-1,0.4-1.1,1.1c0,0.6,0.3,1.1,0.9,1.2
			c0.4,0.1,0.9,0,1.3,0.2c0.4,0.1,0.7,0.4,1,0.7c0.1,0.1-0.2,0.7-0.3,0.7c-0.4,0-0.8-0.1-1.2-0.2c-0.2-0.1-0.3-0.3-0.5-0.4
			c-0.1,0-0.1,0.1-0.2,0.1c0.2,0.4,0.4,0.9,0.7,1.3c0.4-0.1,0.7-0.2,1-0.2c1-0.1,1.4-1,1-1.9C51.5,51.5,50.8,51.4,50.2,51.4"/>
		<path id="Fill-16" d="M45.8,52.9c0,0.3-0.1,0.6-0.1,0.9c0,0.3-0.1,0.6-0.1,0.9c-0.1,0-0.1,0-0.2,0c-0.2-0.4-0.3-0.8-0.5-1.2
			c-0.1,0-0.2,0-0.3,0c-0.1,0.3-0.3,0.7-0.4,1c0.1-0.1,0.3-0.2,0.4-0.3c0.4,1.3,0.4,1.3,1.5,0.8c-0.2,0.4-0.2,0.6-0.4,0.8
			c-0.1,0.2-0.3,0.2-0.5,0.3c0.1,0.1,0.2,0.3,0.2,0.3c0.2-0.1,0.5-0.1,0.6-0.3c0.2-0.2,0.4-0.5,0.4-0.8c0-0.9-0.1-1.7-0.2-2.6
			C46.1,52.9,46,52.9,45.8,52.9"/>
		<path id="Fill-18" d="M0,0"/>
		<path id="Fill-20" d="M0,0"/>
		<path id="Fill-30" d="M43.7,54.7c0,0.4,0.1,0.8,0.1,1.2c-0.2,0-0.3,0-0.5,0.1c0-0.4-0.1-0.8-0.1-1.3
			C43.4,54.7,43.6,54.7,43.7,54.7 M42.3,52.4c-0.3,0.5-0.5,0.7-0.5,0.7c0.3,0.4,0.5,0.6,0.5,0.8c0.2,0.7,0.3,1.5,0.5,2.1
			s0.8,0.7,1.1,0.1c0.2-0.5,0.2-1,0.2-1.5c-0.4-0.1-0.8-0.2-1.2-0.3C42.9,53.9,42.7,53.3,42.3,52.4"/>
		<path id="Fill-32" d="M56.3,35.5c0.4-0.4,0.8-0.7,1.2-1.1c0.1-0.1,0.1-0.2,0.1-0.4c0-0.1,0-0.1,0-0.2c0-0.1,0-0.1,0-0.2h-0.1
			c-0.1,0-0.2,0-0.3,0s-0.3,0-0.4,0.1c-0.5,0.4-1,0.9-1.5,1.4C55.6,35.7,55.9,35.9,56.3,35.5"/>
		<path id="Fill-34" d="M0,0"/>
		<path id="Fill-36" d="M0,0"/>
		<path id="Fill-38" d="M54.2,30.9c0.1-0.1,0.1-0.4,0.1-0.6c-0.2,0-0.5-0.1-0.7,0.1c-0.5,0.4-1,0.9-1.5,1.3c0.2,0.3,0.3,0.5,0.6,0.9
			C53.3,31.9,53.8,31.5,54.2,30.9"/>
		<path id="Fill-40" d="M63.9,17.8c-0.2,0-0.4,0-0.6,0.1c-0.4,0.3-0.7,0.7-1.1,1c0.4,0.6,0.7,0.7,1.1,0.2c0.2-0.2,0.4-0.4,0.6-0.7
			C63.9,18.3,63.9,18.1,63.9,17.8"/>
		<path id="Fill-42" d="M26.7,38.3c-0.6-0.1-1.3-0.1-1.9-0.2c-0.1,0-0.2,0.3-0.4,0.4c0.1,0.1,0.3,0.3,0.4,0.3c0.3,0.1,0.5,0,0.8,0
			c0,0,0,0,0,0.1c0.3,0,0.7,0,1-0.1c0.1,0,0.2-0.2,0.2-0.3C26.9,38.5,26.8,38.4,26.7,38.3"/>
		<path id="Fill-44" d="M74,11.9c-1.2-0.5-2.3-0.1-3.6,0.7c0.3,0.2,0.4,0.2,0.5,0.3c0.6,0.4,1.1,0.8,1.6,1.2c1,0.8,1.4,0.7,2.1-0.5
			C75.1,12.8,74.9,12.3,74,11.9"/>
	</g>
</g>
</svg>
