<svg id="Layer_1" data-name="Layer 1" xmlns="http://www.w3.org/2000/svg" viewBox="0 0 104.48 45.7"><defs><style>.cls-1{opacity:0.5;}.cls-2{fill:#fff;}</style></defs><title>FWI_Logomark_White</title><g class="cls-1"><polygon class="cls-2" points="43.05 45.7 54.81 0 67.89 0 56.14 45.7 43.05 45.7"/><polygon class="cls-2" points="66.56 45.7 78.32 0 91.41 0 79.65 45.7 66.56 45.7"/></g><rect class="cls-2" x="91.41" width="13.07" height="45.7"/><polygon class="cls-2" points="31.29 11.51 31.29 0 3.74 0 3.74 0 0 0 0 45.7 13.07 45.7 13.07 30.36 31.29 30.36 31.29 18.85 13.07 18.85 13.07 11.51 31.29 11.51"/><polygon class="cls-2" points="56.14 45.7 44.38 0 31.29 0 43.05 45.7 56.14 45.7"/><polygon class="cls-2" points="79.65 45.7 67.9 0 54.81 0 66.56 45.7 79.65 45.7"/></svg>